HIERARCHY
ROOT root
{
	OFFSET	0	13.1	24.9
	CHANNELS 6  Xposition Yposition Zposition Xrotation Yrotation Zrotation
	JOINT spine_1
	{
		OFFSET	0	9.99999	0
		CHANNELS 3  Xrotation Yrotation Zrotation
		JOINT spine_2
		{
			OFFSET	0	112	-10
			CHANNELS 3  Xrotation Yrotation Zrotation
			JOINT spine_3
			{
				OFFSET	0	206.5	19.3
				CHANNELS 3  Xrotation Yrotation Zrotation
				JOINT spine_4
				{
					OFFSET	0	110.4	14.6
					CHANNELS 3  Xrotation Yrotation Zrotation
					JOINT neck_1
					{
						OFFSET	0	71.8	-50.3
						CHANNELS 3  Xrotation Yrotation Zrotation
						JOINT neck_2
						{
							OFFSET	0	86.2	-25.8
							CHANNELS 3  Xrotation Yrotation Zrotation
							JOINT head_ee
							{
								OFFSET	0	179.8	-8.7
								CHANNELS 3  Xrotation Yrotation Zrotation
								End Site
								{
									OFFSET	1	0	0
								}
							}
						}
					}
					JOINT left_clavicle
					{
						OFFSET	-43.2	22.4	-70.8
						CHANNELS 3  Xrotation Yrotation Zrotation
						JOINT left_shoulder
						{
							OFFSET	-93.9	-5.79999	48.7
							CHANNELS 3  Xrotation Yrotation Zrotation
							JOINT left_elbow
							{
								OFFSET	-291.4	-30.8	15.2
								CHANNELS 3  Xrotation Yrotation Zrotation
								JOINT left_lowarm_twist
								{
									OFFSET	-110.7	-3.89999	13.6
									CHANNELS 3  Xrotation Yrotation Zrotation
									JOINT left_hand
									{
										OFFSET	-110.7	-3.89999	13.6
										CHANNELS 3  Xrotation Yrotation Zrotation
										JOINT left_ee
										{
											OFFSET	-80.8	-5.10001	12.1
											CHANNELS 3  Xrotation Yrotation Zrotation
											End Site
											{
												OFFSET	1	0	0
											}
										}
									}
								}
							}
						}
					}
					JOINT right_clavicle
					{
						OFFSET	43.2	22.4	-70.8
						CHANNELS 3  Xrotation Yrotation Zrotation
						JOINT right_shoulder
						{
							OFFSET	93.9	-5.79999	48.7
							CHANNELS 3  Xrotation Yrotation Zrotation
							JOINT right_elbow
							{
								OFFSET	291.4	-30.8	15.2
								CHANNELS 3  Xrotation Yrotation Zrotation
								JOINT right_lowarm_twist
								{
									OFFSET	110.7	-3.89999	13.6
									CHANNELS 3  Xrotation Yrotation Zrotation
									JOINT right_hand
									{
										OFFSET	110.7	-3.89999	13.6
										CHANNELS 3  Xrotation Yrotation Zrotation
										JOINT right_ee
										{
											OFFSET	80.8	-5.10001	12.1
											CHANNELS 3  Xrotation Yrotation Zrotation
											End Site
											{
												OFFSET	1	0	0
											}
										}
									}
								}
							}
						}
					}
				}
			}
		}
	}
	JOINT left_hip
	{
		OFFSET	-82.8	-127.5	0.300001
		CHANNELS 3  Xrotation Yrotation Zrotation
		JOINT left_knee
		{
			OFFSET	-28.2	-396.7	2.2
			CHANNELS 3  Xrotation Yrotation Zrotation
			JOINT left_ankle
			{
				OFFSET	-11.7	-411.3	35.4
				CHANNELS 3  Xrotation Yrotation Zrotation
				JOINT left_toes
				{
					OFFSET	0	-60	-88.6
					CHANNELS 3  Xrotation Yrotation Zrotation
					JOINT left_foot_ee
					{
						OFFSET	-22.5	-16.5	-42.2
						CHANNELS 3  Xrotation Yrotation Zrotation
						End Site
						{
							OFFSET	1	0	0
						}
					}
				}
			}
		}
	}
	JOINT right_hip
	{
		OFFSET	82.8	-127.5	0.300001
		CHANNELS 3  Xrotation Yrotation Zrotation
		JOINT right_knee
		{
			OFFSET	28.2	-396.7	2.2
			CHANNELS 3  Xrotation Yrotation Zrotation
			JOINT right_ankle
			{
				OFFSET	11.7	-411.3	35.4
				CHANNELS 3  Xrotation Yrotation Zrotation
				JOINT right_toes
				{
					OFFSET	0	-60	-88.6
					CHANNELS 3  Xrotation Yrotation Zrotation
					JOINT right_foot_ee
					{
						OFFSET	22.5	-16.5	-42.2
						CHANNELS 3  Xrotation Yrotation Zrotation
						End Site
						{
							OFFSET	1	0	0
						}
					}
				}
			}
		}
	}
}
MOTION
Frames: 9
Frame Time: 0.02
859.77 678.582 -1502.83 -138.058 86.3638 144.063 1.25352 -0.136953 0.15341 1.25352 -0.146438 0.144384 1.25314 -0.171058 0.114149 1.25316 -0.150883 0.139732 -17.6794 8.90041 -5.88771 -18.0912 20.3215 -2.05382 -0.0 0.0 -0.0 0.978905 15.063 3.33798 -22.1868 -17.6413 72.9593 0.187868 -5.31702 0.00872337 -56.767 -4.88364 4.98921 3.15373 6.42865 24.0262 -0.0 0.0 -0.0 11.0063 -3.66054 -21.4676 11.2259 6.93871 -66.0225 2.74721 53.6813 -1.39036 -59.8081 5.2589 -5.09517 1.46032 -11.0009 -13.9954 0.0 0.0 0.0 26.3222 3.14359 -13.0296 4.26219 -0.198835 -0.623571 -21.0437 -28.3433 3.96441 -14.2734 0.0 0.0 -0.0 0.0 -0.0 0.205007 7.08487 -11.6988 -17.3633 -0.317708 -2.63544 37.8431 -15.0803 4.73538 -35.3523 0.0 0.0 0.0 0.0 0.0 
842.345 676.805 -1498.83 -116.142 87.1263 122.463 1.50724 -0.0763195 0.0561263 1.50724 -0.0797363 0.0511561 1.50716 -0.0878018 0.0355764 1.50717 -0.0810812 0.0489966 -17.011 8.91017 -4.0087 -17.3946 19.3422 -0.411573 -0.0 0.0 -0.0 0.638897 14.6789 2.75614 -20.514 -17.1709 73.2886 0.201591 -5.70293 0.0100409 -54.0059 -4.54811 4.87584 3.57155 4.32432 26.3163 -0.0 0.0 -0.0 11.034 -4.1649 -21.4774 9.16436 6.2861 -66.4574 2.66717 52.87 -1.32621 -56.8133 4.88932 -4.99097 2.03904 -7.93536 -16.7719 0.0 0.0 0.0 25.5982 3.1644 -14.305 3.16872 -0.143398 -0.465 -17.8494 -28.7975 3.38049 -11.4174 0.0 0.0 -0.0 0.0 -0.0 0.557629 8.51306 -11.3056 -19.5234 -0.301005 -2.96643 37.3706 -15.1217 4.69119 -37.0486 0.0 0.0 0.0 0.0 0.0 
821.877 674.357 -1492.53 -91.253 87.419 97.8695 1.8365 0.207352 -0.017706 1.83648 0.208058 -0.00447576 1.83646 0.205508 0.032784 1.83652 0.208106 -8.36695e-05 -17.2201 8.29144 -2.24518 -17.5472 17.1708 1.02485 -0.0 0.0 -0.0 0.476122 15.2948 2.55746 -19.8208 -18.243 72.7316 0.24266 -6.85459 0.0145327 -52.1364 -4.32416 4.78995 4.23821 4.53991 31.4624 -0.0 0.0 -0.0 10.7195 -6.44914 -20.6218 7.00489 5.14883 -67.911 2.58022 51.9528 -1.2573 -51.7551 4.27883 -4.77153 2.78459 -5.49038 -21.0546 0.0 0.0 0.0 26.1306 2.89924 -15.3803 -5.70391 0.192468 0.853863 -5.05303 -26.0695 0.908696 -5.04286 0.0 0.0 -0.0 0.0 -0.0 0.0993813 8.97845 -11.405 -21.8259 -0.269477 -3.31829 38.3589 -15.2562 4.78629 -38.586 0.0 0.0 0.0 0.0 0.0 
811.396 674.21 -1484.71 -81.894 87.0399 88.4201 2.0827 0.140985 -0.0288749 2.08268 0.142537 -0.0198451 2.08264 0.143813 0.00533336 2.08266 0.142851 -0.0174462 -15.8718 7.86491 -1.45283 -16.1163 15.9089 1.40044 -0.0 0.0 -0.0 0.392119 15.4262 2.43734 -18.1087 -18.7857 72.7686 0.29955 -8.44061 0.0221044 -48.5614 -3.90416 4.60556 4.55765 3.47859 33.5866 -0.0 0.0 -0.0 10.6665 -5.5037 -20.6111 4.54084 4.83623 -67.3103 2.44741 50.4755 -1.15377 -49.4737 4.01024 -4.6551 3.38786 -5.01441 -25.2175 0.0 0.0 0.0 25.6981 2.79277 -15.9765 -8.39521 0.253547 1.26231 -1.51327 -28.9309 0.279763 -2.37983 0.0 0.0 -0.0 0.0 -0.0 0.0395701 10.0792 -11.0076 -22.8058 -0.251773 -3.46762 37.9188 -16.7305 4.76814 -39.6937 0.0 0.0 0.0 0.0 0.0 
782.102 679.698 -1477.37 -117.087 87.2951 124.602 2.18587 -0.0396712 -0.370128 2.18595 -0.0160387 -0.371902 2.18605 0.0484419 -0.369083 2.18586 -0.0104553 -0.372101 -16.4267 5.62072 -2.30519 -16.5644 12.0933 -0.148731 -0.0 0.0 -0.0 0.0754062 16.2042 2.02127 -17.8661 -20.7931 70.5164 0.525844 -14.6006 0.0673653 -46.0996 -3.62194 4.46352 5.26919 3.24662 39.4302 -0.0 0.0 -0.0 10.4845 -10.3997 -19.7191 3.10949 4.27311 -67.4578 1.98731 44.5462 -0.814033 -48.2579 3.86904 -4.5887 4.28655 -3.57345 -31.4743 0.0 0.0 0.0 21.9694 4.95149 -15.4771 -5.57136 0.188965 0.833823 5.48499 -26.9579 -0.966843 -1.86222 0.0 0.0 -0.0 0.0 -0.0 1.14403 8.56027 -11.5264 -28.4737 -0.0994954 -4.32376 36.7442 -17.6482 4.67077 -40.2398 0.0 0.0 0.0 0.0 0.0 
760.241 684.472 -1472.37 -148.973 87.4312 157.29 2.18511 -0.234035 -0.512649 2.18523 -0.20094 -0.526501 2.18709 -0.106994 -0.553292 2.18671 -0.193032 -0.529452 -16.8232 5.07176 -1.17622 -16.9362 10.3978 0.746422 -0.0 0.0 -0.0 0.0913245 16.3846 2.06642 -15.9942 -22.2734 68.5572 0.644327 -17.7022 0.100337 -43.9932 -3.38549 4.33248 5.45434 2.88863 40.9091 -0.0 0.0 -0.0 10.2681 -13.2464 -18.9499 1.49274 3.72982 -67.3374 1.7536 40.9765 -0.655277 -47.3827 3.76828 -4.53906 4.75081 -2.15356 -34.6214 0.0 0.0 0.0 19.973 5.58534 -16.155 -7.06096 0.225666 1.05947 9.12041 -27.9027 -1.60358 1.06894 -0.0 -0.0 -0.0 0.0 -0.0 2.18575 7.97326 -11.6819 -33.8476 0.122433 -5.11827 37.5367 -17.6251 4.74721 -40.162 0.0 0.0 0.0 0.0 0.0 
746.098 683.974 -1468.7 -142.645 87.7394 151.54 2.43294 -0.165761 -0.591254 2.43312 -0.127803 -0.600603 2.43445 -0.0248024 -0.613549 2.43394 -0.121388 -0.601932 -17.4881 3.01012 -0.875735 -17.5311 6.26829 0.307192 -0.0 0.0 -0.0 0.392052 15.9293 2.48974 -14.5725 -23.1228 67.7756 0.789037 -21.3487 0.148727 -42.7324 -3.24633 4.24993 5.6729 3.74693 43.2574 -0.0 0.0 -0.0 10.1522 -15.11 -18.4818 -0.0793492 3.47875 -67.2766 1.47712 36.1914 -0.482696 -45.3717 3.5397 -4.41922 5.21644 -1.70108 -38.3235 0.0 0.0 0.0 18.4598 6.04639 -16.2087 -6.01766 0.200576 0.90133 15.7188 -28.0553 -2.68512 3.76297 -0.0 -0.0 -0.0 0.0 -0.0 3.07326 7.4934 -11.953 -35.2619 0.193168 -5.3237 38.3706 -20.5524 4.8877 -40.1721 0.0 0.0 0.0 0.0 0.0 
739.498 681.613 -1463.8 -149.891 86.6097 159.166 2.56846 -0.135128 -0.718567 2.56874 -0.0891316 -0.725709 2.56982 0.0326681 -0.730432 2.56909 -0.0830968 -0.726425 -18.0326 2.83337 -2.52103 -18.0719 6.81681 -1.26703 -0.0 0.0 -0.0 1.21251 15.7544 3.76955 -12.6954 -23.5263 66.5384 0.853408 -22.9162 0.172981 -42.447 -3.21508 4.23081 5.23419 6.09748 40.2523 -0.0 0.0 -0.0 10.0049 -14.9689 -18.2445 -1.05005 2.82303 -66.7117 1.21242 30.9876 -0.336103 -40.0068 2.95189 -4.06115 6.71031 0.707638 -51.3923 0.0 0.0 0.0 17.5738 6.60778 -16.0746 -2.98956 0.111494 0.445203 12.2987 -28.7027 -2.15395 1.5303 -0.0 -0.0 -0.0 0.0 -0.0 4.46954 6.19303 -12.7016 -39.1442 0.413223 -5.87812 36.7106 -26.0342 4.87261 -39.8408 0.0 0.0 0.0 0.0 0.0 
727.14 683.926 -1460.77 -154.553 86.6685 164.096 2.61007 -0.111792 -0.90109 2.61052 -0.054229 -0.906377 2.61129 0.096453 -0.902861 2.61015 -0.0473415 -0.906763 -18.2509 2.61423 -1.33573 -18.2871 5.74931 -0.23413 -0.0 0.0 -0.0 1.6283 15.343 4.39811 -10.4635 -23.4009 65.6495 0.962724 -25.4963 0.217814 -43.9832 -3.38439 4.33184 4.8629 8.41316 37.8975 -0.0 0.0 -0.0 9.9007 -14.9543 -18.0645 -2.31232 2.24743 -65.9957 0.919666 24.4925 -0.19962 -37.7331 2.71337 -3.89314 7.51203 1.20349 -60.7919 0.0 0.0 0.0 15.432 7.69174 -16.539 -1.05898 0.0421534 0.157045 14.4436 -29.4488 -2.52785 3.44145 -0.0 -0.0 -0.0 0.0 -0.0 5.39357 3.69023 -11.9305 -42.5042 0.633719 -6.34524 36.2864 -27.4365 4.87439 -40.2234 0.0 0.0 0.0 0.0 0.0 
